<mxfile host="app.diagrams.net" modified="2022-07-21T00:19:20.077Z" agent="5.0 (Windows NT 10.0; Win64; x64) AppleWebKit/537.36 (KHTML, like Gecko) Chrome/103.0.0.0 Safari/537.36" etag="on01om34gjK8bF25Gufx" version="20.1.2" type="github" pages="5">
  <diagram id="ffldiTkn9KKdRfjbwwl2" name="Preparations of Financial Accountability Reports">
    <mxGraphModel dx="1422" dy="754" grid="1" gridSize="10" guides="1" tooltips="1" connect="1" arrows="1" fold="1" page="1" pageScale="1" pageWidth="850" pageHeight="1100" math="0" shadow="0">
      <root>
        <mxCell id="0" />
        <mxCell id="1" parent="0" />
        <mxCell id="nK3BBAztnljaZ44SXew8-1" value="&lt;h1&gt;Preparations of Financial Accountability Reports&lt;/h1&gt;" style="text;html=1;strokeColor=none;fillColor=none;spacing=5;spacingTop=-20;whiteSpace=wrap;overflow=hidden;rounded=0;fontSize=10;align=center;" parent="1" vertex="1">
          <mxGeometry x="40" y="40" width="770" height="60" as="geometry" />
        </mxCell>
        <mxCell id="nK3BBAztnljaZ44SXew8-2" value="" style="edgeStyle=orthogonalEdgeStyle;rounded=0;orthogonalLoop=1;jettySize=auto;html=1;fontSize=10;" parent="1" source="nK3BBAztnljaZ44SXew8-3" target="nK3BBAztnljaZ44SXew8-5" edge="1">
          <mxGeometry relative="1" as="geometry" />
        </mxCell>
        <mxCell id="nK3BBAztnljaZ44SXew8-3" value="START" style="strokeWidth=2;html=1;shape=mxgraph.flowchart.start_1;whiteSpace=wrap;fontSize=10;" parent="1" vertex="1">
          <mxGeometry x="383" y="120" width="85" height="40" as="geometry" />
        </mxCell>
        <mxCell id="nK3BBAztnljaZ44SXew8-4" value="" style="edgeStyle=orthogonalEdgeStyle;rounded=0;orthogonalLoop=1;jettySize=auto;html=1;fontSize=10;" parent="1" source="nK3BBAztnljaZ44SXew8-5" target="nK3BBAztnljaZ44SXew8-7" edge="1">
          <mxGeometry relative="1" as="geometry" />
        </mxCell>
        <mxCell id="nK3BBAztnljaZ44SXew8-5" value="&lt;a href=&quot;data:page/id,hNX0t5sDPNBhHfxtsSVg&quot;&gt;1. Prepare Report&lt;/a&gt;" style="rounded=1;whiteSpace=wrap;html=1;absoluteArcSize=1;arcSize=14;strokeWidth=2;fontSize=10;" parent="1" vertex="1">
          <mxGeometry x="375" y="200" width="100" height="40" as="geometry" />
        </mxCell>
        <mxCell id="nK3BBAztnljaZ44SXew8-6" value="" style="edgeStyle=orthogonalEdgeStyle;rounded=0;orthogonalLoop=1;jettySize=auto;html=1;fontSize=10;" parent="1" source="nK3BBAztnljaZ44SXew8-7" target="nK3BBAztnljaZ44SXew8-9" edge="1">
          <mxGeometry relative="1" as="geometry" />
        </mxCell>
        <mxCell id="nK3BBAztnljaZ44SXew8-7" value="&lt;a href=&quot;data:page/id,4X3HByEnq9atPXqAKG-o&quot;&gt;2. Encoding data to URS&lt;/a&gt;" style="rounded=1;whiteSpace=wrap;html=1;absoluteArcSize=1;arcSize=14;strokeWidth=2;fontSize=10;" parent="1" vertex="1">
          <mxGeometry x="375" y="280" width="100" height="40" as="geometry" />
        </mxCell>
        <mxCell id="nK3BBAztnljaZ44SXew8-8" value="" style="edgeStyle=orthogonalEdgeStyle;rounded=0;orthogonalLoop=1;jettySize=auto;html=1;fontSize=10;" parent="1" source="nK3BBAztnljaZ44SXew8-9" target="nK3BBAztnljaZ44SXew8-11" edge="1">
          <mxGeometry relative="1" as="geometry" />
        </mxCell>
        <mxCell id="nK3BBAztnljaZ44SXew8-9" value="&lt;a href=&quot;data:page/id,VTFAJ2JaxI0PK_9Ly-v-&quot;&gt;3.Review and approval of Reports&lt;/a&gt;" style="rounded=1;whiteSpace=wrap;html=1;absoluteArcSize=1;arcSize=14;strokeWidth=2;fontSize=10;" parent="1" vertex="1">
          <mxGeometry x="375" y="360" width="100" height="40" as="geometry" />
        </mxCell>
        <mxCell id="nK3BBAztnljaZ44SXew8-10" value="" style="edgeStyle=orthogonalEdgeStyle;rounded=0;orthogonalLoop=1;jettySize=auto;html=1;fontSize=10;" parent="1" source="nK3BBAztnljaZ44SXew8-11" target="nK3BBAztnljaZ44SXew8-12" edge="1">
          <mxGeometry relative="1" as="geometry" />
        </mxCell>
        <mxCell id="nK3BBAztnljaZ44SXew8-11" value="&lt;a href=&quot;data:page/id,y2DI_Nz7UCQvOwnrBEmm&quot;&gt;4.Forward reports to Accounting office&lt;/a&gt;" style="rounded=1;whiteSpace=wrap;html=1;absoluteArcSize=1;arcSize=14;strokeWidth=2;fontSize=10;" parent="1" vertex="1">
          <mxGeometry x="375" y="440" width="100" height="40" as="geometry" />
        </mxCell>
        <mxCell id="nK3BBAztnljaZ44SXew8-12" value="END" style="strokeWidth=2;html=1;shape=mxgraph.flowchart.start_1;whiteSpace=wrap;fontSize=10;" parent="1" vertex="1">
          <mxGeometry x="383" y="520" width="85" height="40" as="geometry" />
        </mxCell>
      </root>
    </mxGraphModel>
  </diagram>
  <diagram id="hNX0t5sDPNBhHfxtsSVg" name="Prepare Report">
    <mxGraphModel dx="1422" dy="754" grid="1" gridSize="10" guides="1" tooltips="1" connect="1" arrows="1" fold="1" page="1" pageScale="1" pageWidth="850" pageHeight="1100" math="0" shadow="0">
      <root>
        <mxCell id="0" />
        <mxCell id="1" parent="0" />
        <mxCell id="djF0-oDnAQlVDyP_Gy3I-1" value="&lt;h1&gt;Prepare Report&lt;/h1&gt;" style="text;html=1;strokeColor=none;fillColor=none;spacing=5;spacingTop=-20;whiteSpace=wrap;overflow=hidden;rounded=0;fontSize=10;align=center;" parent="1" vertex="1">
          <mxGeometry x="40" y="40" width="770" height="60" as="geometry" />
        </mxCell>
        <mxCell id="vr3Bf8pgGqk-lP3qu1IN-5" value="" style="edgeStyle=orthogonalEdgeStyle;rounded=0;orthogonalLoop=1;jettySize=auto;html=1;" parent="1" source="Z1AFW4JJqmDIx2wYdR5V-1" target="vr3Bf8pgGqk-lP3qu1IN-4" edge="1">
          <mxGeometry relative="1" as="geometry" />
        </mxCell>
        <mxCell id="vr3Bf8pgGqk-lP3qu1IN-20" style="edgeStyle=orthogonalEdgeStyle;rounded=0;orthogonalLoop=1;jettySize=auto;html=1;entryX=0.5;entryY=0;entryDx=0;entryDy=0;entryPerimeter=0;" parent="1" source="Z1AFW4JJqmDIx2wYdR5V-1" target="vr3Bf8pgGqk-lP3qu1IN-16" edge="1">
          <mxGeometry relative="1" as="geometry" />
        </mxCell>
        <mxCell id="Z1AFW4JJqmDIx2wYdR5V-1" value="START" style="strokeWidth=2;html=1;shape=mxgraph.flowchart.start_1;whiteSpace=wrap;fontSize=10;" parent="1" vertex="1">
          <mxGeometry x="383" y="150" width="85" height="40" as="geometry" />
        </mxCell>
        <mxCell id="vr3Bf8pgGqk-lP3qu1IN-7" value="" style="edgeStyle=orthogonalEdgeStyle;rounded=0;orthogonalLoop=1;jettySize=auto;html=1;" parent="1" source="vr3Bf8pgGqk-lP3qu1IN-1" target="vr3Bf8pgGqk-lP3qu1IN-3" edge="1">
          <mxGeometry relative="1" as="geometry" />
        </mxCell>
        <mxCell id="vr3Bf8pgGqk-lP3qu1IN-1" value="Reporting officer A prepare reports" style="shape=trapezoid;perimeter=trapezoidPerimeter;whiteSpace=wrap;html=1;fixedSize=1;fontSize=10;strokeWidth=2;direction=west;" parent="1" vertex="1">
          <mxGeometry x="107.5" y="350" width="120" height="60" as="geometry" />
        </mxCell>
        <mxCell id="vr3Bf8pgGqk-lP3qu1IN-21" style="edgeStyle=orthogonalEdgeStyle;rounded=0;orthogonalLoop=1;jettySize=auto;html=1;entryX=0;entryY=0.5;entryDx=0;entryDy=0;entryPerimeter=0;" parent="1" source="vr3Bf8pgGqk-lP3qu1IN-3" target="vr3Bf8pgGqk-lP3qu1IN-17" edge="1">
          <mxGeometry relative="1" as="geometry">
            <Array as="points">
              <mxPoint x="160" y="620" />
            </Array>
          </mxGeometry>
        </mxCell>
        <mxCell id="vr3Bf8pgGqk-lP3qu1IN-3" value="&lt;ul&gt;&lt;li&gt;Financial Accountability &lt;br&gt;Reports(FAR) - FAR No.1&lt;/li&gt;&lt;li&gt;FAR No. 1 A&lt;/li&gt;&lt;li&gt;FAR No. 1 B&lt;span style=&quot;color: rgba(0, 0, 0, 0); font-family: monospace; font-size: 0px;&quot;&gt;%3CmxGraphModel%3E%3Croot%3E%3CmxCell%20id%3D%220%22%2F%3E%3CmxCell%20id%3D%221%22%20parent%3D%220%22%2F%3E%3CmxCell%20id%3D%222%22%20value%3D%22START%22%20style%3D%22strokeWidth%3D2%3Bhtml%3D1%3Bshape%3Dmxgraph.flowchart.start_1%3BwhiteSpace%3Dwrap%3BfontSize%3D10%3B%22%20vertex%3D%221%22%20parent%3D%221%22%3E%3CmxGeometry%20x%3D%22383%22%20y%3D%22120%22%20width%3D%2285%22%20height%3D%2240%22%20as%3D%22geometry%22%2F%3E%3C%2FmxCell%3E%3C%2Froot%3E%3C%2FmxGraphModel%3E&lt;/span&gt;&lt;/li&gt;&lt;/ul&gt;" style="strokeWidth=2;html=1;shape=mxgraph.flowchart.multi-document;whiteSpace=wrap;align=left;" parent="1" vertex="1">
          <mxGeometry x="60" y="450" width="213.5" height="100" as="geometry" />
        </mxCell>
        <mxCell id="vr3Bf8pgGqk-lP3qu1IN-6" value="" style="edgeStyle=orthogonalEdgeStyle;rounded=0;orthogonalLoop=1;jettySize=auto;html=1;" parent="1" source="vr3Bf8pgGqk-lP3qu1IN-4" target="vr3Bf8pgGqk-lP3qu1IN-1" edge="1">
          <mxGeometry relative="1" as="geometry" />
        </mxCell>
        <mxCell id="vr3Bf8pgGqk-lP3qu1IN-4" value="SAODB,RAPAL,RAOD" style="strokeWidth=2;html=1;shape=mxgraph.flowchart.multi-document;whiteSpace=wrap;verticalAlign=middle;align=center;" parent="1" vertex="1">
          <mxGeometry x="84.25" y="230" width="166.5" height="80" as="geometry" />
        </mxCell>
        <mxCell id="vr3Bf8pgGqk-lP3qu1IN-12" value="" style="edgeStyle=orthogonalEdgeStyle;rounded=0;orthogonalLoop=1;jettySize=auto;html=1;" parent="1" source="vr3Bf8pgGqk-lP3qu1IN-13" edge="1">
          <mxGeometry relative="1" as="geometry">
            <mxPoint x="672.55" y="450" as="targetPoint" />
          </mxGeometry>
        </mxCell>
        <mxCell id="vr3Bf8pgGqk-lP3qu1IN-13" value="Reporting Officer B prepare reports" style="shape=trapezoid;perimeter=trapezoidPerimeter;whiteSpace=wrap;html=1;fixedSize=1;fontSize=10;strokeWidth=2;direction=west;" parent="1" vertex="1">
          <mxGeometry x="613.25" y="350" width="120" height="60" as="geometry" />
        </mxCell>
        <mxCell id="vr3Bf8pgGqk-lP3qu1IN-15" value="" style="edgeStyle=orthogonalEdgeStyle;rounded=0;orthogonalLoop=1;jettySize=auto;html=1;" parent="1" source="vr3Bf8pgGqk-lP3qu1IN-16" target="vr3Bf8pgGqk-lP3qu1IN-13" edge="1">
          <mxGeometry relative="1" as="geometry" />
        </mxCell>
        <mxCell id="vr3Bf8pgGqk-lP3qu1IN-16" value="RBUD,RROR" style="strokeWidth=2;html=1;shape=mxgraph.flowchart.multi-document;whiteSpace=wrap;verticalAlign=middle;align=center;" parent="1" vertex="1">
          <mxGeometry x="590" y="230" width="166.5" height="80" as="geometry" />
        </mxCell>
        <mxCell id="vr3Bf8pgGqk-lP3qu1IN-17" value="END" style="strokeWidth=2;html=1;shape=mxgraph.flowchart.start_1;whiteSpace=wrap;fontSize=10;" parent="1" vertex="1">
          <mxGeometry x="383" y="600" width="85" height="40" as="geometry" />
        </mxCell>
        <mxCell id="vr3Bf8pgGqk-lP3qu1IN-23" style="edgeStyle=orthogonalEdgeStyle;rounded=0;orthogonalLoop=1;jettySize=auto;html=1;" parent="1" source="vr3Bf8pgGqk-lP3qu1IN-22" edge="1">
          <mxGeometry relative="1" as="geometry">
            <mxPoint x="470" y="620" as="targetPoint" />
            <Array as="points">
              <mxPoint x="670" y="620" />
            </Array>
          </mxGeometry>
        </mxCell>
        <mxCell id="vr3Bf8pgGqk-lP3qu1IN-22" value="&lt;ul&gt;&lt;li&gt;FAR No. 2 A&lt;/li&gt;&lt;li&gt;FAR No.1-C&lt;/li&gt;&lt;li&gt;FAR No.6&lt;/li&gt;&lt;/ul&gt;" style="strokeWidth=2;html=1;shape=mxgraph.flowchart.multi-document;whiteSpace=wrap;align=left;" parent="1" vertex="1">
          <mxGeometry x="596.5" y="450" width="153.5" height="100" as="geometry" />
        </mxCell>
      </root>
    </mxGraphModel>
  </diagram>
  <diagram id="4X3HByEnq9atPXqAKG-o" name="Encoding of data to URS">
    <mxGraphModel dx="1422" dy="754" grid="1" gridSize="10" guides="1" tooltips="1" connect="1" arrows="1" fold="1" page="1" pageScale="1" pageWidth="850" pageHeight="1100" math="0" shadow="0">
      <root>
        <mxCell id="0" />
        <mxCell id="1" parent="0" />
        <mxCell id="JKaFuh78sBB5WHeBH_Gw-1" value="&lt;h1&gt;Encoding of data to URS&lt;/h1&gt;" style="text;html=1;strokeColor=none;fillColor=none;spacing=5;spacingTop=-20;whiteSpace=wrap;overflow=hidden;rounded=0;fontSize=10;align=center;" parent="1" vertex="1">
          <mxGeometry x="40" y="40" width="770" height="60" as="geometry" />
        </mxCell>
        <mxCell id="Qs4vKYfW3ruhJfs4tc87-3" style="edgeStyle=orthogonalEdgeStyle;rounded=0;orthogonalLoop=1;jettySize=auto;html=1;" parent="1" source="JKaFuh78sBB5WHeBH_Gw-2" target="Qs4vKYfW3ruhJfs4tc87-1" edge="1">
          <mxGeometry relative="1" as="geometry" />
        </mxCell>
        <mxCell id="Qs4vKYfW3ruhJfs4tc87-4" style="edgeStyle=orthogonalEdgeStyle;rounded=0;orthogonalLoop=1;jettySize=auto;html=1;entryX=0.521;entryY=0.1;entryDx=0;entryDy=0;entryPerimeter=0;" parent="1" source="JKaFuh78sBB5WHeBH_Gw-2" target="Qs4vKYfW3ruhJfs4tc87-2" edge="1">
          <mxGeometry relative="1" as="geometry" />
        </mxCell>
        <mxCell id="JKaFuh78sBB5WHeBH_Gw-2" value="START" style="strokeWidth=2;html=1;shape=mxgraph.flowchart.start_1;whiteSpace=wrap;fontSize=10;" parent="1" vertex="1">
          <mxGeometry x="383" y="120" width="85" height="40" as="geometry" />
        </mxCell>
        <mxCell id="ddRw3v5pMS4OvuTsewNY-3" style="edgeStyle=orthogonalEdgeStyle;rounded=0;orthogonalLoop=1;jettySize=auto;html=1;" parent="1" source="Qs4vKYfW3ruhJfs4tc87-1" target="X57IbKvWO4P6NCfngf-Q-1" edge="1">
          <mxGeometry relative="1" as="geometry" />
        </mxCell>
        <mxCell id="Qs4vKYfW3ruhJfs4tc87-1" value="&lt;ul&gt;&lt;li&gt;Financial Accountability &lt;br&gt;Reports(FAR) - FAR No.1&lt;/li&gt;&lt;li&gt;FAR No. 1 A&lt;/li&gt;&lt;li&gt;FAR No. 1 B&lt;span style=&quot;color: rgba(0, 0, 0, 0); font-family: monospace; font-size: 0px;&quot;&gt;%3CmxGraphModel%3E%3Croot%3E%3CmxCell%20id%3D%220%22%2F%3E%3CmxCell%20id%3D%221%22%20parent%3D%220%22%2F%3E%3CmxCell%20id%3D%222%22%20value%3D%22START%22%20style%3D%22strokeWidth%3D2%3Bhtml%3D1%3Bshape%3Dmxgraph.flowchart.start_1%3BwhiteSpace%3Dwrap%3BfontSize%3D10%3B%22%20vertex%3D%221%22%20parent%3D%221%22%3E%3CmxGeometry%20x%3D%22383%22%20y%3D%22120%22%20width%3D%2285%22%20height%3D%2240%22%20as%3D%22geometry%22%2F%3E%3C%2FmxCell%3E%3C%2Froot%3E%3C%2FmxGraphModel%3E&lt;/span&gt;&lt;/li&gt;&lt;/ul&gt;" style="strokeWidth=2;html=1;shape=mxgraph.flowchart.multi-document;whiteSpace=wrap;align=left;" parent="1" vertex="1">
          <mxGeometry x="169.5" y="200" width="213.5" height="100" as="geometry" />
        </mxCell>
        <mxCell id="ddRw3v5pMS4OvuTsewNY-4" style="edgeStyle=orthogonalEdgeStyle;rounded=0;orthogonalLoop=1;jettySize=auto;html=1;" parent="1" source="Qs4vKYfW3ruhJfs4tc87-2" target="X57IbKvWO4P6NCfngf-Q-1" edge="1">
          <mxGeometry relative="1" as="geometry" />
        </mxCell>
        <mxCell id="Qs4vKYfW3ruhJfs4tc87-2" value="&lt;ul&gt;&lt;li&gt;FAR No. 2 A&lt;/li&gt;&lt;li&gt;FAR No.1-C&lt;/li&gt;&lt;li&gt;FAR No.6&lt;/li&gt;&lt;/ul&gt;" style="strokeWidth=2;html=1;shape=mxgraph.flowchart.multi-document;whiteSpace=wrap;align=left;" parent="1" vertex="1">
          <mxGeometry x="468" y="200" width="153.5" height="100" as="geometry" />
        </mxCell>
        <mxCell id="ddRw3v5pMS4OvuTsewNY-2" value="" style="edgeStyle=orthogonalEdgeStyle;rounded=0;orthogonalLoop=1;jettySize=auto;html=1;" parent="1" source="X57IbKvWO4P6NCfngf-Q-1" target="ddRw3v5pMS4OvuTsewNY-1" edge="1">
          <mxGeometry relative="1" as="geometry" />
        </mxCell>
        <mxCell id="ddRw3v5pMS4OvuTsewNY-6" value="" style="edgeStyle=orthogonalEdgeStyle;rounded=0;orthogonalLoop=1;jettySize=auto;html=1;" parent="1" source="X57IbKvWO4P6NCfngf-Q-1" target="ddRw3v5pMS4OvuTsewNY-5" edge="1">
          <mxGeometry relative="1" as="geometry" />
        </mxCell>
        <mxCell id="X57IbKvWO4P6NCfngf-Q-1" value="Reporting Officers encode the data in the URS" style="html=1;strokeWidth=2;shape=manualInput;whiteSpace=wrap;rounded=1;size=26;arcSize=11;verticalAlign=bottom;" parent="1" vertex="1">
          <mxGeometry x="363" y="345" width="125" height="70" as="geometry" />
        </mxCell>
        <mxCell id="ddRw3v5pMS4OvuTsewNY-1" value="URS (Unified Reporting System)" style="strokeWidth=2;html=1;shape=mxgraph.flowchart.stored_data;whiteSpace=wrap;" parent="1" vertex="1">
          <mxGeometry x="550" y="350" width="120" height="60" as="geometry" />
        </mxCell>
        <mxCell id="ddRw3v5pMS4OvuTsewNY-8" value="" style="edgeStyle=orthogonalEdgeStyle;rounded=0;orthogonalLoop=1;jettySize=auto;html=1;" parent="1" source="ddRw3v5pMS4OvuTsewNY-5" target="ddRw3v5pMS4OvuTsewNY-7" edge="1">
          <mxGeometry relative="1" as="geometry" />
        </mxCell>
        <mxCell id="ddRw3v5pMS4OvuTsewNY-5" value="Informs &lt;b&gt;Accounting Office&lt;/b&gt;&lt;br&gt;&amp;nbsp;to complete data &lt;br&gt;needed in the URS" style="verticalLabelPosition=middle;verticalAlign=middle;html=1;shape=trapezoid;perimeter=trapezoidPerimeter;whiteSpace=wrap;size=0.23;arcSize=10;flipV=1;labelPosition=center;align=center;fillColor=#e1d5e7;strokeColor=#9673a6;" parent="1" vertex="1">
          <mxGeometry x="310.5" y="470" width="230" height="70" as="geometry" />
        </mxCell>
        <mxCell id="ddRw3v5pMS4OvuTsewNY-7" value="END" style="strokeWidth=2;html=1;shape=mxgraph.flowchart.start_1;whiteSpace=wrap;fontSize=10;" parent="1" vertex="1">
          <mxGeometry x="383" y="580" width="85" height="40" as="geometry" />
        </mxCell>
        <mxCell id="ddRw3v5pMS4OvuTsewNY-10" value="" style="edgeStyle=orthogonalEdgeStyle;rounded=0;orthogonalLoop=1;jettySize=auto;html=1;" parent="1" source="ddRw3v5pMS4OvuTsewNY-9" target="ddRw3v5pMS4OvuTsewNY-5" edge="1">
          <mxGeometry relative="1" as="geometry" />
        </mxCell>
        <mxCell id="ddRw3v5pMS4OvuTsewNY-9" value="" style="strokeWidth=2;html=1;shape=mxgraph.flowchart.annotation_2;align=left;labelPosition=right;pointerEvents=1;" parent="1" vertex="1">
          <mxGeometry x="550" y="440" width="50" height="130" as="geometry" />
        </mxCell>
        <mxCell id="ddRw3v5pMS4OvuTsewNY-11" value="&lt;ul&gt;&lt;li&gt;Steps of encoding of data to URS - Refer to the Unified Reporting System Quick User Guide&lt;/li&gt;&lt;/ul&gt;" style="text;html=1;strokeColor=#9673a6;fillColor=#e1d5e7;align=left;verticalAlign=middle;whiteSpace=wrap;rounded=0;" parent="1" vertex="1">
          <mxGeometry x="580" y="450" width="260" height="65" as="geometry" />
        </mxCell>
        <mxCell id="K9rYx0F77UJxiH1cJOYf-1" value="&lt;ul style=&quot;text-align: left;&quot;&gt;&lt;li&gt;Refer to Booking Financial Transactions and Submission of Financial Reports Procedure&lt;/li&gt;&lt;/ul&gt;" style="text;html=1;strokeColor=none;fillColor=none;align=center;verticalAlign=middle;whiteSpace=wrap;rounded=0;" parent="1" vertex="1">
          <mxGeometry x="560" y="510" width="280" height="70" as="geometry" />
        </mxCell>
      </root>
    </mxGraphModel>
  </diagram>
  <diagram id="VTFAJ2JaxI0PK_9Ly-v-" name="Review and Approval of Reports">
    <mxGraphModel dx="1422" dy="754" grid="1" gridSize="10" guides="1" tooltips="1" connect="1" arrows="1" fold="1" page="1" pageScale="1" pageWidth="850" pageHeight="1100" math="0" shadow="0">
      <root>
        <mxCell id="0" />
        <mxCell id="1" parent="0" />
        <mxCell id="4Y9E8vktefWTgB64Fjwy-1" value="&lt;h1&gt;Review and Approval of Reports&lt;/h1&gt;" style="text;html=1;strokeColor=none;fillColor=none;spacing=5;spacingTop=-20;whiteSpace=wrap;overflow=hidden;rounded=0;fontSize=10;align=center;" parent="1" vertex="1">
          <mxGeometry x="40" y="40" width="770" height="60" as="geometry" />
        </mxCell>
        <mxCell id="4Y9E8vktefWTgB64Fjwy-4" value="" style="edgeStyle=orthogonalEdgeStyle;rounded=0;orthogonalLoop=1;jettySize=auto;html=1;" parent="1" source="4Y9E8vktefWTgB64Fjwy-2" target="4Y9E8vktefWTgB64Fjwy-3" edge="1">
          <mxGeometry relative="1" as="geometry" />
        </mxCell>
        <mxCell id="4Y9E8vktefWTgB64Fjwy-2" value="START" style="strokeWidth=2;html=1;shape=mxgraph.flowchart.start_1;whiteSpace=wrap;fontSize=10;" parent="1" vertex="1">
          <mxGeometry x="383" y="120" width="85" height="40" as="geometry" />
        </mxCell>
        <mxCell id="CAPQ1BzGVPU-e7NiDH_I-3" value="" style="edgeStyle=orthogonalEdgeStyle;rounded=0;orthogonalLoop=1;jettySize=auto;html=1;" parent="1" source="4Y9E8vktefWTgB64Fjwy-3" target="CAPQ1BzGVPU-e7NiDH_I-2" edge="1">
          <mxGeometry relative="1" as="geometry" />
        </mxCell>
        <mxCell id="4Y9E8vktefWTgB64Fjwy-3" value="Data in Unified Reporting System&lt;br&gt;(URS)" style="shape=parallelogram;html=1;strokeWidth=2;perimeter=parallelogramPerimeter;whiteSpace=wrap;rounded=1;arcSize=12;size=0.23;fillColor=#d5e8d4;strokeColor=#82b366;" parent="1" vertex="1">
          <mxGeometry x="290" y="200" width="270" height="60" as="geometry" />
        </mxCell>
        <mxCell id="CAPQ1BzGVPU-e7NiDH_I-9" value="" style="edgeStyle=orthogonalEdgeStyle;rounded=0;orthogonalLoop=1;jettySize=auto;html=1;" parent="1" source="CAPQ1BzGVPU-e7NiDH_I-2" target="CAPQ1BzGVPU-e7NiDH_I-4" edge="1">
          <mxGeometry relative="1" as="geometry" />
        </mxCell>
        <mxCell id="CAPQ1BzGVPU-e7NiDH_I-2" value="Reporting officers generate fully accomplished reports" style="shape=trapezoid;perimeter=trapezoidPerimeter;whiteSpace=wrap;html=1;fixedSize=1;strokeWidth=2;rounded=1;arcSize=12;direction=west;" parent="1" vertex="1">
          <mxGeometry x="328" y="300" width="195" height="70" as="geometry" />
        </mxCell>
        <mxCell id="CAPQ1BzGVPU-e7NiDH_I-10" value="" style="edgeStyle=orthogonalEdgeStyle;rounded=0;orthogonalLoop=1;jettySize=auto;html=1;" parent="1" source="CAPQ1BzGVPU-e7NiDH_I-4" target="CAPQ1BzGVPU-e7NiDH_I-5" edge="1">
          <mxGeometry relative="1" as="geometry" />
        </mxCell>
        <mxCell id="CAPQ1BzGVPU-e7NiDH_I-4" value="Initials below name of SAO" style="shape=trapezoid;perimeter=trapezoidPerimeter;whiteSpace=wrap;html=1;fixedSize=1;strokeWidth=2;rounded=1;arcSize=12;direction=west;" parent="1" vertex="1">
          <mxGeometry x="328" y="410" width="195" height="70" as="geometry" />
        </mxCell>
        <mxCell id="CAPQ1BzGVPU-e7NiDH_I-11" value="" style="edgeStyle=orthogonalEdgeStyle;rounded=0;orthogonalLoop=1;jettySize=auto;html=1;" parent="1" source="CAPQ1BzGVPU-e7NiDH_I-5" target="CAPQ1BzGVPU-e7NiDH_I-6" edge="1">
          <mxGeometry relative="1" as="geometry" />
        </mxCell>
        <mxCell id="CAPQ1BzGVPU-e7NiDH_I-5" value="Forwards to AO V for review&lt;br&gt;and initials" style="shape=trapezoid;perimeter=trapezoidPerimeter;whiteSpace=wrap;html=1;fixedSize=1;strokeWidth=2;rounded=1;arcSize=12;direction=west;" parent="1" vertex="1">
          <mxGeometry x="328" y="520" width="195" height="70" as="geometry" />
        </mxCell>
        <mxCell id="CAPQ1BzGVPU-e7NiDH_I-12" value="" style="edgeStyle=orthogonalEdgeStyle;rounded=0;orthogonalLoop=1;jettySize=auto;html=1;" parent="1" source="CAPQ1BzGVPU-e7NiDH_I-6" target="CAPQ1BzGVPU-e7NiDH_I-7" edge="1">
          <mxGeometry relative="1" as="geometry" />
        </mxCell>
        <mxCell id="CAPQ1BzGVPU-e7NiDH_I-6" value="SAO shall affix signature on the reports and forwards to Processing Clerk B" style="shape=trapezoid;perimeter=trapezoidPerimeter;whiteSpace=wrap;html=1;fixedSize=1;strokeWidth=2;rounded=1;arcSize=12;direction=west;" parent="1" vertex="1">
          <mxGeometry x="328" y="640" width="195" height="70" as="geometry" />
        </mxCell>
        <mxCell id="CAPQ1BzGVPU-e7NiDH_I-7" value="END" style="strokeWidth=2;html=1;shape=mxgraph.flowchart.start_1;whiteSpace=wrap;fontSize=10;" parent="1" vertex="1">
          <mxGeometry x="383" y="760" width="85" height="40" as="geometry" />
        </mxCell>
        <mxCell id="CAPQ1BzGVPU-e7NiDH_I-8" style="edgeStyle=orthogonalEdgeStyle;rounded=0;orthogonalLoop=1;jettySize=auto;html=1;exitX=0.5;exitY=1;exitDx=0;exitDy=0;exitPerimeter=0;" parent="1" source="CAPQ1BzGVPU-e7NiDH_I-7" target="CAPQ1BzGVPU-e7NiDH_I-7" edge="1">
          <mxGeometry relative="1" as="geometry" />
        </mxCell>
      </root>
    </mxGraphModel>
  </diagram>
  <diagram id="y2DI_Nz7UCQvOwnrBEmm" name="Forwards to Accounting Office">
    <mxGraphModel dx="1422" dy="754" grid="1" gridSize="10" guides="1" tooltips="1" connect="1" arrows="1" fold="1" page="1" pageScale="1" pageWidth="850" pageHeight="1100" math="0" shadow="0">
      <root>
        <mxCell id="0" />
        <mxCell id="1" parent="0" />
        <mxCell id="pIL59QYj3LGMSyfsJFNX-1" value="&lt;h1&gt;Forwards to Accounting Office&lt;/h1&gt;" style="text;html=1;strokeColor=none;fillColor=none;spacing=5;spacingTop=-20;whiteSpace=wrap;overflow=hidden;rounded=0;fontSize=10;align=center;" parent="1" vertex="1">
          <mxGeometry x="40" y="40" width="770" height="60" as="geometry" />
        </mxCell>
        <mxCell id="pIL59QYj3LGMSyfsJFNX-2" value="" style="edgeStyle=orthogonalEdgeStyle;rounded=0;orthogonalLoop=1;jettySize=auto;html=1;" parent="1" source="pIL59QYj3LGMSyfsJFNX-3" edge="1">
          <mxGeometry relative="1" as="geometry">
            <mxPoint x="425" y="200" as="targetPoint" />
          </mxGeometry>
        </mxCell>
        <mxCell id="pIL59QYj3LGMSyfsJFNX-3" value="START" style="strokeWidth=2;html=1;shape=mxgraph.flowchart.start_1;whiteSpace=wrap;fontSize=10;" parent="1" vertex="1">
          <mxGeometry x="383" y="120" width="85" height="40" as="geometry" />
        </mxCell>
        <mxCell id="pIL59QYj3LGMSyfsJFNX-4" value="" style="edgeStyle=orthogonalEdgeStyle;rounded=0;orthogonalLoop=1;jettySize=auto;html=1;" parent="1" target="pIL59QYj3LGMSyfsJFNX-7" edge="1">
          <mxGeometry relative="1" as="geometry">
            <mxPoint x="425" y="260" as="sourcePoint" />
          </mxGeometry>
        </mxCell>
        <mxCell id="pIL59QYj3LGMSyfsJFNX-6" value="" style="edgeStyle=orthogonalEdgeStyle;rounded=0;orthogonalLoop=1;jettySize=auto;html=1;" parent="1" source="pIL59QYj3LGMSyfsJFNX-7" target="pIL59QYj3LGMSyfsJFNX-9" edge="1">
          <mxGeometry relative="1" as="geometry" />
        </mxCell>
        <mxCell id="pIL59QYj3LGMSyfsJFNX-7" value="Processing Clerk B shall forward reports to &lt;b&gt;Accounting Office &lt;/b&gt;for consideration" style="shape=trapezoid;perimeter=trapezoidPerimeter;whiteSpace=wrap;html=1;fixedSize=1;strokeWidth=2;rounded=1;arcSize=12;direction=west;fillColor=#e1d5e7;strokeColor=#9673a6;" parent="1" vertex="1">
          <mxGeometry x="328" y="300" width="195" height="70" as="geometry" />
        </mxCell>
        <mxCell id="pIL59QYj3LGMSyfsJFNX-8" value="" style="edgeStyle=orthogonalEdgeStyle;rounded=0;orthogonalLoop=1;jettySize=auto;html=1;" parent="1" source="pIL59QYj3LGMSyfsJFNX-9" edge="1">
          <mxGeometry relative="1" as="geometry">
            <mxPoint x="425.5" y="520" as="targetPoint" />
          </mxGeometry>
        </mxCell>
        <mxCell id="pIL59QYj3LGMSyfsJFNX-9" value="Submit to DBM" style="shape=trapezoid;perimeter=trapezoidPerimeter;whiteSpace=wrap;html=1;fixedSize=1;strokeWidth=2;rounded=1;arcSize=12;direction=west;" parent="1" vertex="1">
          <mxGeometry x="328" y="410" width="195" height="70" as="geometry" />
        </mxCell>
        <mxCell id="pIL59QYj3LGMSyfsJFNX-14" value="END" style="strokeWidth=2;html=1;shape=mxgraph.flowchart.start_1;whiteSpace=wrap;fontSize=10;" parent="1" vertex="1">
          <mxGeometry x="383" y="520" width="85" height="40" as="geometry" />
        </mxCell>
        <mxCell id="pIL59QYj3LGMSyfsJFNX-15" style="edgeStyle=orthogonalEdgeStyle;rounded=0;orthogonalLoop=1;jettySize=auto;html=1;exitX=0.5;exitY=1;exitDx=0;exitDy=0;exitPerimeter=0;" parent="1" source="pIL59QYj3LGMSyfsJFNX-14" target="pIL59QYj3LGMSyfsJFNX-14" edge="1">
          <mxGeometry relative="1" as="geometry" />
        </mxCell>
        <mxCell id="pIL59QYj3LGMSyfsJFNX-16" value="Financial Accountability Reports" style="strokeWidth=2;html=1;shape=mxgraph.flowchart.document2;whiteSpace=wrap;size=0.25;verticalAlign=top;" parent="1" vertex="1">
          <mxGeometry x="375.5" y="190" width="100" height="70" as="geometry" />
        </mxCell>
      </root>
    </mxGraphModel>
  </diagram>
</mxfile>
